<?xml version="1.0" encoding="UTF-8" standalone="no"?>
<!-- Created with Inkscape (http://www.inkscape.org/) -->

<svg
   xmlns:dc="http://purl.org/dc/elements/1.1/"
   xmlns:cc="http://creativecommons.org/ns#"
   xmlns:rdf="http://www.w3.org/1999/02/22-rdf-syntax-ns#"
   xmlns:svg="http://www.w3.org/2000/svg"
   xmlns="http://www.w3.org/2000/svg"
   xmlns:sodipodi="http://sodipodi.sourceforge.net/DTD/sodipodi-0.dtd"
   xmlns:inkscape="http://www.inkscape.org/namespaces/inkscape"
   width="79.406044mm"
   height="79.406044mm"
   viewBox="0 0 281.36 281.36"
   id="svg3587"
   version="1.1"
   inkscape:version="0.91 r13725"
   sodipodi:docname="eggicon.svg">
  <defs
     id="defs3589" />
  <sodipodi:namedview
     id="base"
     pagecolor="#ffffff"
     bordercolor="#666666"
     borderopacity="1.0"
     inkscape:pageopacity="0.0"
     inkscape:pageshadow="2"
     inkscape:zoom="0.35"
     inkscape:cx="272.82286"
     inkscape:cy="512.10853"
     inkscape:document-units="px"
     inkscape:current-layer="layer1"
     showgrid="false"
     fit-margin-top="0"
     fit-margin-left="0"
     fit-margin-right="0"
     fit-margin-bottom="0"
     inkscape:window-width="947"
     inkscape:window-height="1029"
     inkscape:window-x="6"
     inkscape:window-y="41"
     inkscape:window-maximized="0" />
  <metadata
     id="metadata3592">
    <rdf:RDF>
      <cc:Work
         rdf:about="">
        <dc:format>image/svg+xml</dc:format>
        <dc:type
           rdf:resource="http://purl.org/dc/dcmitype/StillImage" />
        <dc:title></dc:title>
      </cc:Work>
    </rdf:RDF>
  </metadata>
  <g
     inkscape:label="Layer 1"
     inkscape:groupmode="layer"
     id="layer1"
     transform="translate(-102.17714,-305.96788)">
    <g
       transform="matrix(1.25,0,0,-1.25,-92.250857,1045.7)"
       id="g3524">
      <g
         transform="translate(380.6304,479.2417)"
         id="g56">
        <path
           inkscape:connector-curvature="0"
           id="path58"
           style="fill:#3a373c;fill-opacity:1;fill-rule:evenodd;stroke:none"
           d="m 0,0 c 0,-62.156 -50.388,-112.544 -112.544,-112.544 -62.156,0 -112.544,50.388 -112.544,112.544 0,62.156 50.388,112.544 112.544,112.544 C -50.388,112.544 0,62.156 0,0" />
      </g>
      <g
         transform="translate(348.4468,479.2417)"
         id="g60">
        <path
           inkscape:connector-curvature="0"
           id="path62"
           style="fill:#262528;fill-opacity:1;fill-rule:evenodd;stroke:none"
           d="m 0,0 c 0,-44.382 -35.979,-80.36 -80.361,-80.36 -44.382,0 -80.36,35.978 -80.36,80.36 0,44.382 35.978,80.36 80.36,80.36 C -35.979,80.36 0,44.382 0,0" />
      </g>
      <g
         transform="translate(318.106,495.3457)"
         id="g64">
        <path
           inkscape:connector-curvature="0"
           id="path66"
           style="fill:#fcfdfc;fill-opacity:1;fill-rule:evenodd;stroke:none"
           d="m 0,0 c -14.4,-13.828 -19.036,6.678 -40.255,-18.321 -13.555,-15.969 18.829,-50.13 -29.47,-51.403 -23.494,-0.619 -69.724,31.217 -69.724,69.724 0,38.508 31.217,69.725 69.724,69.725 C -31.218,69.725 27.774,26.672 0,0" />
      </g>
      <g
         transform="translate(268.8423,508.8027)"
         id="g68">
        <path
           inkscape:connector-curvature="0"
           id="path70"
           style="fill:#ffac4f;fill-opacity:1;fill-rule:evenodd;stroke:none"
           d="m 0,0 c 0,-16.324 -13.233,-29.557 -29.557,-29.557 -16.324,0 -29.557,13.233 -29.557,29.557 0,16.324 13.233,29.557 29.557,29.557 C -13.233,29.557 0,16.324 0,0" />
      </g>
      <g
         transform="translate(259.7476,516.3818)"
         id="g72">
        <path
           inkscape:connector-curvature="0"
           id="path74"
           style="fill:#fce475;fill-opacity:1;fill-rule:evenodd;stroke:none"
           d="m 0,0 c 0,-7.953 -6.447,-14.4 -14.4,-14.4 -7.953,0 -14.399,6.447 -14.399,14.4 0,7.952 6.446,14.399 14.399,14.399 C -6.447,14.399 0,7.952 0,0" />
      </g>
      <g
         transform="translate(349.5391,496.8301)"
         id="g76">
        <path
           inkscape:connector-curvature="0"
           id="path78"
           style="fill:#f8d0a4;fill-opacity:1;fill-rule:nonzero;stroke:none"
           d="m 0,0 c -5.749,-2.117 -10.963,-5.246 -14.619,-8.493 -6.968,-5.812 -11.541,-11.473 -16.099,-16.863 -4.199,-4.998 -9.2,-11.679 -11.708,-14.133 -3.137,-3.12 -6.66,-5.435 -11.033,-7.317 -8.797,-3.927 -21.18,-4.771 -36.711,-8.809 -9.556,-2.517 -18.887,-8.68 -24.923,-15.761 -2.711,-3.188 -4.976,-6.244 -6.93,-9.475 1.767,-1.878 3.382,-3.924 4.815,-6.142 2.049,3.824 4.49,7.333 7.506,10.837 5.34,6.228 13.211,11.406 21.469,13.603 14.413,3.818 27.294,4.632 37.574,9.111 5.108,2.179 9.536,5.069 13.326,8.859 3.398,3.429 7.922,9.608 12.171,14.64 4.441,5.271 8.902,10.719 15.113,15.88 3.87,3.382 9.218,6.418 14.977,8.116 C 3.244,-4.077 1.622,-2.092 0,0" />
      </g>
      <g
         transform="translate(354.4668,490.8828)"
         id="g80">
        <path
           inkscape:connector-curvature="0"
           id="path82"
           style="fill:#93193f;fill-opacity:1;fill-rule:nonzero;stroke:none"
           d="m 0,0 c -5.758,-1.697 -11.107,-4.733 -14.977,-8.116 -6.211,-5.16 -10.672,-10.609 -15.113,-15.88 -4.248,-5.032 -8.772,-11.211 -12.17,-14.639 -3.791,-3.791 -8.219,-6.681 -13.327,-8.86 -10.28,-4.479 -23.161,-5.293 -37.574,-9.111 -8.258,-2.197 -16.129,-7.374 -21.469,-13.603 -3.016,-3.504 -5.456,-7.013 -7.506,-10.837 0.588,-0.909 1.156,-1.836 1.682,-2.801 0.713,-1.31 1.467,-2.565 2.265,-3.791 0.184,-0.207 0.371,-0.41 0.555,-0.616 4.936,11.331 13.898,21.298 26.408,24.708 13.296,3.599 26.673,4.385 38.441,9.414 5.844,2.478 11.173,5.942 15.619,10.403 4.287,4.403 8.334,10.08 12.63,15.146 4.324,5.15 8.674,10.384 14.127,14.897 4.495,3.85 10.387,6.821 16.568,7.653 C 6.158,-6.017 6.156,-6.001 6.154,-5.985 3.948,-4.148 1.933,-2.147 0,0" />
      </g>
      <g
         transform="translate(363.2305,468.4561)"
         id="g84">
        <path
           inkscape:connector-curvature="0"
           id="path86"
           style="fill:#93193f;fill-opacity:1;fill-rule:nonzero;stroke:none"
           d="m 0,0 c -2.985,-0.296 -5.198,-1.318 -8.662,-4.07 -3.711,-3.021 -7.807,-7.762 -11.858,-12.637 -4.41,-5.145 -7.359,-9.666 -13.689,-16.31 -5.953,-6.005 -13.363,-10.79 -20.894,-13.954 -15.185,-6.294 -29.709,-7.017 -40.432,-10.109 -3.976,-1.136 -7.028,-3.062 -10.069,-6.476 -2.869,-3.053 -5.688,-8.413 -6.783,-11.89 l 3.47,-0.965 c 0.852,2.725 3.543,7.925 6.006,10.464 2.692,2.989 5.015,4.422 8.343,5.397 10.163,2.983 24.939,3.692 40.866,10.263 7.898,3.311 15.76,8.383 22.038,14.723 6.776,7.129 9.489,11.402 13.92,16.565 3.993,4.812 8.033,9.448 11.366,12.146 3.481,2.692 4.734,3.126 7.356,3.32 C 0.619,-2.369 0.295,-1.191 0,0" />
      </g>
      <g
         transform="translate(332.709,460.0068)"
         id="g88">
        <path
           inkscape:connector-curvature="0"
           id="path90"
           style="fill:#93193f;fill-opacity:1;fill-rule:nonzero;stroke:none"
           d="m 0,0 c -4.32,-5.083 -8.129,-10.51 -12.86,-15.4 -4.774,-4.796 -10.556,-8.547 -16.766,-11.175 -12.508,-5.304 -26.138,-6.077 -38.874,-9.565 -11.734,-3.101 -20.3,-13.121 -24.705,-24.206 1.401,-1.549 2.8,-3.1 4.183,-4.666 l 5.072,-1.408 c 1.245,3.931 4.137,9.386 7.25,12.747 3.248,3.67 6.739,5.891 11.105,7.124 11.059,3.16 25.432,3.89 40.172,10.018 7.312,3.075 14.45,7.689 20.205,13.491 6.064,6.351 9.157,11.025 13.553,16.161 4.087,4.91 8.213,9.713 12.154,12.93 3.528,2.839 6.215,4.142 9.53,4.526 -0.251,1.193 -0.471,2.4 -0.651,3.628 -0.346,2.383 -0.679,4.742 -0.994,7.09 C 16.307,19.73 7.669,9.104 0,0" />
      </g>
      <g
         transform="translate(344.0581,477.1968)"
         id="g92">
        <path
           inkscape:connector-curvature="0"
           id="path94"
           style="fill:#f8d0a4;fill-opacity:1;fill-rule:nonzero;stroke:none"
           d="m 0,0 c -5.453,-4.513 -9.804,-9.747 -14.127,-14.897 -4.296,-5.066 -8.344,-10.743 -12.63,-15.145 -4.447,-4.462 -9.775,-7.926 -15.619,-10.404 -11.768,-5.029 -25.145,-5.815 -38.441,-9.414 -12.51,-3.41 -21.473,-13.377 -26.408,-24.708 0.887,-0.991 1.778,-1.98 2.671,-2.968 4.405,11.085 12.971,21.105 24.705,24.206 12.736,3.488 26.366,4.261 38.874,9.565 6.21,2.628 11.992,6.379 16.766,11.175 4.731,4.89 8.54,10.317 12.86,15.4 C -3.68,-8.085 4.958,2.54 17.024,4.105 16.867,5.29 16.715,6.473 16.568,7.653 10.387,6.821 4.495,3.85 0,0" />
      </g>
      <g
         transform="translate(362.7275,470.5835)"
         id="g96">
        <path
           inkscape:connector-curvature="0"
           id="path98"
           style="fill:#f8d0a4;fill-opacity:1;fill-rule:nonzero;stroke:none"
           d="m 0,0 c -3.315,-0.383 -6.001,-1.687 -9.529,-4.525 -3.942,-3.217 -8.067,-8.021 -12.155,-12.931 -4.396,-5.136 -7.489,-9.81 -13.552,-16.161 -5.756,-5.802 -12.894,-10.415 -20.205,-13.49 -14.74,-6.129 -29.113,-6.858 -40.173,-10.018 -4.366,-1.234 -7.857,-3.455 -11.105,-7.125 -3.113,-3.361 -6.005,-8.815 -7.249,-12.747 l 2.084,-0.577 c 1.095,3.477 3.914,8.837 6.782,11.891 3.041,3.413 6.094,5.339 10.07,6.475 10.723,3.092 25.247,3.815 40.432,10.11 7.531,3.164 14.941,7.948 20.893,13.953 6.331,6.645 9.28,11.166 13.69,16.311 4.051,4.875 8.147,9.615 11.858,12.637 3.464,2.751 5.677,3.773 8.662,4.07 C 0.329,-1.422 0.15,-0.717 0,0" />
      </g>
      <g
         transform="translate(333.1963,513.0264)"
         id="g100">
        <path
           inkscape:connector-curvature="0"
           id="path102"
           style="fill:#a8c100;fill-opacity:1;fill-rule:nonzero;stroke:none"
           d="M 0,0 C -0.664,0.729 3.265,6.735 3.265,6.735 L -3.441,5.822 -10.597,8.285 15.25,27.536 8.597,29.275 6.875,34.956 7.141,41.052 1.501,37.476 0.852,40.99 c -37.095,-26.791 -44.52,-68.834 -44.52,-68.838 l 1.882,-0.329 c 0,0 1.73,8.859 4.872,19.674 l 11.401,-5.75 25.101,-10.547 -1.024,7.587 7.501,2.254 -6.45,7.455 9.294,7.716 C 8.909,0.212 0.665,-0.729 0,0" />
      </g>
      <g
         transform="translate(334.0479,554.0166)"
         id="g104">
        <path
           inkscape:connector-curvature="0"
           id="path106"
           style="fill:#749500;fill-opacity:1;fill-rule:nonzero;stroke:none"
           d="m 0,0 -0.13,0.7 -3.091,0.259 -3.249,6.314 -3.852,-4.963 -1.911,2.585 -4.473,-3.871 -2.702,6.136 -12.041,-26.389 -14.836,17.147 -0.291,-6.444 -6.243,3.072 -2.03,-7.403 -4.494,1.758 -2.825,-1.956 -5.275,0.089 28.047,-33.199 c -2.624,-5.428 -4.443,-11.458 -6.865,-22.368 l 1.741,-0.305 c 0,0.004 7.426,42.046 44.52,68.838" />
      </g>
    </g>
  </g>
</svg>
